<mxfile host="app.diagrams.net" modified="2024-07-23T12:42:40.000Z" agent="Mozilla/5.0 (Windows NT 10.0; Win64; x64; rv:128.0) Gecko/20100101 Firefox/128.0" etag="EmkR_qlYq_ZKn_acxy8v" version="24.7.1" type="device">
  <diagram name="Page-1" id="jdsrJKQQJvrj5TsC79xN">
    <mxGraphModel dx="1562" dy="818" grid="1" gridSize="10" guides="1" tooltips="1" connect="1" arrows="1" fold="1" page="1" pageScale="1" pageWidth="1654" pageHeight="1169" math="0" shadow="0">
      <root>
        <mxCell id="0" />
        <mxCell id="1" parent="0" />
        <mxCell id="AhyQFol9iE1XHPI1_2-C-85" value="&lt;div style=&quot;font-size: 31px; padding-left: 8px;&quot;&gt;Test PCB&lt;/div&gt;&lt;div style=&quot;font-size: 31px;&quot;&gt;&lt;br style=&quot;font-size: 31px;&quot;&gt;&lt;/div&gt;" style="rounded=0;whiteSpace=wrap;html=1;verticalAlign=top;align=left;fontSize=31;strokeWidth=4;perimeterSpacing=0;" parent="1" vertex="1">
          <mxGeometry x="440" y="270" width="900" height="580" as="geometry" />
        </mxCell>
        <mxCell id="tseDFiqmj2iWgsH7JX1f-3" value="" style="shadow=0;dashed=0;align=center;html=1;strokeWidth=1;shape=mxgraph.electrical.abstract.mux2;whiteSpace=wrap;" parent="1" vertex="1">
          <mxGeometry x="1088" y="660" width="40" height="60" as="geometry" />
        </mxCell>
        <mxCell id="AhyQFol9iE1XHPI1_2-C-49" style="edgeStyle=orthogonalEdgeStyle;rounded=0;orthogonalLoop=1;jettySize=auto;html=1;exitX=1;exitY=0.5073529411764706;exitDx=0;exitDy=3;exitPerimeter=0;entryX=0;entryY=0.5;entryDx=0;entryDy=0;endArrow=none;endFill=0;strokeWidth=3;" parent="1" source="tseDFiqmj2iWgsH7JX1f-4" target="AhyQFol9iE1XHPI1_2-C-50" edge="1">
          <mxGeometry relative="1" as="geometry">
            <mxPoint x="788" y="810" as="targetPoint" />
          </mxGeometry>
        </mxCell>
        <mxCell id="AhyQFol9iE1XHPI1_2-C-79" style="edgeStyle=orthogonalEdgeStyle;rounded=0;orthogonalLoop=1;jettySize=auto;html=1;exitX=0.44999999999999996;exitY=1;exitDx=10;exitDy=0;exitPerimeter=0;entryX=0.7;entryY=0.7;entryDx=0;entryDy=0;entryPerimeter=0;endArrow=none;endFill=0;" parent="1" source="tseDFiqmj2iWgsH7JX1f-4" target="AhyQFol9iE1XHPI1_2-C-58" edge="1">
          <mxGeometry relative="1" as="geometry">
            <mxPoint x="741" y="780" as="targetPoint" />
            <Array as="points">
              <mxPoint x="741" y="775" />
            </Array>
          </mxGeometry>
        </mxCell>
        <mxCell id="AhyQFol9iE1XHPI1_2-C-89" style="edgeStyle=orthogonalEdgeStyle;rounded=0;orthogonalLoop=1;jettySize=auto;html=1;exitX=1;exitY=0.7102941176470587;exitDx=0;exitDy=3;exitPerimeter=0;endArrow=cross;endFill=0;" parent="1" source="tseDFiqmj2iWgsH7JX1f-4" edge="1">
          <mxGeometry relative="1" as="geometry">
            <mxPoint x="780" y="730" as="targetPoint" />
          </mxGeometry>
        </mxCell>
        <mxCell id="tseDFiqmj2iWgsH7JX1f-4" value="" style="shadow=0;dashed=0;align=center;html=1;strokeWidth=1;shape=mxgraph.electrical.abstract.mux2;operation=demux;whiteSpace=wrap;selectorPins=2;" parent="1" vertex="1">
          <mxGeometry x="708" y="667" width="50" height="85" as="geometry" />
        </mxCell>
        <mxCell id="tseDFiqmj2iWgsH7JX1f-11" style="edgeStyle=orthogonalEdgeStyle;rounded=0;orthogonalLoop=1;jettySize=auto;html=1;exitX=0;exitY=0.75;exitDx=0;exitDy=0;endArrow=none;endFill=0;" parent="1" source="tseDFiqmj2iWgsH7JX1f-8" edge="1">
          <mxGeometry relative="1" as="geometry">
            <mxPoint x="898" y="560" as="targetPoint" />
          </mxGeometry>
        </mxCell>
        <mxCell id="tseDFiqmj2iWgsH7JX1f-13" value="&lt;div&gt;Clock&lt;/div&gt;" style="edgeLabel;html=1;align=center;verticalAlign=middle;resizable=1;points=[];movable=1;rotatable=1;deletable=1;editable=1;locked=0;connectable=1;" parent="tseDFiqmj2iWgsH7JX1f-11" vertex="1" connectable="0">
          <mxGeometry x="0.1497" y="-2" relative="1" as="geometry">
            <mxPoint x="23" y="1" as="offset" />
          </mxGeometry>
        </mxCell>
        <mxCell id="AhyQFol9iE1XHPI1_2-C-1" style="edgeStyle=orthogonalEdgeStyle;rounded=0;orthogonalLoop=1;jettySize=auto;html=1;exitX=1;exitY=0.25;exitDx=0;exitDy=0;endArrow=none;endFill=0;entryX=0;entryY=0.5;entryDx=0;entryDy=0;" parent="1" source="tseDFiqmj2iWgsH7JX1f-8" target="AhyQFol9iE1XHPI1_2-C-93" edge="1">
          <mxGeometry relative="1" as="geometry">
            <mxPoint x="1198" y="500" as="targetPoint" />
          </mxGeometry>
        </mxCell>
        <mxCell id="AhyQFol9iE1XHPI1_2-C-2" value="Done" style="edgeLabel;html=1;align=center;verticalAlign=middle;resizable=1;points=[];movable=1;rotatable=1;deletable=1;editable=1;locked=0;connectable=1;" parent="AhyQFol9iE1XHPI1_2-C-1" connectable="0" vertex="1">
          <mxGeometry x="-0.095" y="-2" relative="1" as="geometry">
            <mxPoint x="-72" y="2" as="offset" />
          </mxGeometry>
        </mxCell>
        <mxCell id="AhyQFol9iE1XHPI1_2-C-12" style="edgeStyle=orthogonalEdgeStyle;rounded=0;orthogonalLoop=1;jettySize=auto;html=1;exitX=1;exitY=0.5;exitDx=0;exitDy=0;endArrow=none;endFill=0;strokeWidth=3;entryX=1;entryY=0.5;entryDx=0;entryDy=0;" parent="1" source="tseDFiqmj2iWgsH7JX1f-8" target="AhyQFol9iE1XHPI1_2-C-50" edge="1">
          <mxGeometry relative="1" as="geometry">
            <mxPoint x="1298" y="620" as="targetPoint" />
            <Array as="points">
              <mxPoint x="1298" y="530" />
              <mxPoint x="1298" y="810" />
            </Array>
          </mxGeometry>
        </mxCell>
        <mxCell id="AhyQFol9iE1XHPI1_2-C-51" value="JTAG Bus" style="edgeLabel;html=1;align=center;verticalAlign=middle;resizable=0;points=[];" parent="AhyQFol9iE1XHPI1_2-C-12" connectable="0" vertex="1">
          <mxGeometry x="-0.8351" y="1" relative="1" as="geometry">
            <mxPoint x="-14" as="offset" />
          </mxGeometry>
        </mxCell>
        <mxCell id="AhyQFol9iE1XHPI1_2-C-17" style="edgeStyle=elbowEdgeStyle;rounded=0;orthogonalLoop=1;jettySize=auto;html=1;exitX=0.25;exitY=1;exitDx=0;exitDy=0;endArrow=none;endFill=0;strokeWidth=3;entryX=0;entryY=0.18333333333333332;entryDx=0;entryDy=3;entryPerimeter=0;" parent="1" source="tseDFiqmj2iWgsH7JX1f-8" target="tseDFiqmj2iWgsH7JX1f-3" edge="1">
          <mxGeometry relative="1" as="geometry">
            <mxPoint x="1018" y="710" as="targetPoint" />
            <Array as="points">
              <mxPoint x="1018" y="650" />
            </Array>
          </mxGeometry>
        </mxCell>
        <mxCell id="AhyQFol9iE1XHPI1_2-C-18" value="SPI Bus" style="edgeLabel;html=1;align=center;verticalAlign=middle;resizable=0;points=[];rotation=0;" parent="AhyQFol9iE1XHPI1_2-C-17" connectable="0" vertex="1">
          <mxGeometry x="0.3755" relative="1" as="geometry">
            <mxPoint x="-21" y="-44" as="offset" />
          </mxGeometry>
        </mxCell>
        <mxCell id="tseDFiqmj2iWgsH7JX1f-8" value="DUT" style="rounded=0;whiteSpace=wrap;html=1;verticalAlign=top;spacingTop=12;" parent="1" vertex="1">
          <mxGeometry x="996" y="470" width="90" height="120" as="geometry" />
        </mxCell>
        <mxCell id="tseDFiqmj2iWgsH7JX1f-12" value="&lt;div&gt;Clock generator&lt;/div&gt;" style="rounded=0;whiteSpace=wrap;html=1;" parent="1" vertex="1">
          <mxGeometry x="848" y="540" width="80" height="40" as="geometry" />
        </mxCell>
        <mxCell id="AhyQFol9iE1XHPI1_2-C-42" style="edgeStyle=orthogonalEdgeStyle;rounded=0;orthogonalLoop=1;jettySize=auto;html=1;exitX=0;exitY=0.5;exitDx=0;exitDy=0;entryX=1;entryY=0.10147058823529412;entryDx=0;entryDy=3;entryPerimeter=0;endArrow=none;endFill=0;strokeWidth=3;" parent="1" edge="1">
          <mxGeometry relative="1" as="geometry">
            <mxPoint x="758" y="678.625" as="targetPoint" />
            <mxPoint x="848" y="500" as="sourcePoint" />
            <Array as="points">
              <mxPoint x="778" y="500" />
              <mxPoint x="778" y="679" />
            </Array>
          </mxGeometry>
        </mxCell>
        <mxCell id="tseDFiqmj2iWgsH7JX1f-16" value="&lt;div&gt;Power-on Reset&lt;br&gt;&lt;/div&gt;" style="rounded=0;whiteSpace=wrap;html=1;" parent="1" vertex="1">
          <mxGeometry x="848" y="480" width="80" height="40" as="geometry" />
        </mxCell>
        <mxCell id="tseDFiqmj2iWgsH7JX1f-17" style="edgeStyle=orthogonalEdgeStyle;rounded=0;orthogonalLoop=1;jettySize=auto;html=1;exitX=1;exitY=0.5;exitDx=0;exitDy=0;entryX=0;entryY=0.25;entryDx=0;entryDy=0;endArrow=none;endFill=0;" parent="1" source="tseDFiqmj2iWgsH7JX1f-16" target="tseDFiqmj2iWgsH7JX1f-8" edge="1">
          <mxGeometry relative="1" as="geometry" />
        </mxCell>
        <mxCell id="tseDFiqmj2iWgsH7JX1f-18" value="Reset" style="edgeLabel;html=1;align=center;verticalAlign=middle;resizable=1;points=[];movable=1;rotatable=1;deletable=1;editable=1;locked=0;connectable=1;" parent="tseDFiqmj2iWgsH7JX1f-17" vertex="1" connectable="0">
          <mxGeometry x="0.64" relative="1" as="geometry">
            <mxPoint x="-21" y="-1" as="offset" />
          </mxGeometry>
        </mxCell>
        <mxCell id="AhyQFol9iE1XHPI1_2-C-109" style="edgeStyle=orthogonalEdgeStyle;rounded=0;orthogonalLoop=1;jettySize=auto;html=1;exitX=0.5;exitY=0;exitDx=0;exitDy=0;exitPerimeter=0;entryX=0.5;entryY=0;entryDx=0;entryDy=0;endArrow=none;endFill=0;" parent="1" source="AhyQFol9iE1XHPI1_2-C-4" target="AhyQFol9iE1XHPI1_2-C-108" edge="1">
          <mxGeometry relative="1" as="geometry" />
        </mxCell>
        <mxCell id="AhyQFol9iE1XHPI1_2-C-4" value="V&lt;sub style=&quot;font-size: 12px;&quot;&gt;dd&lt;/sub&gt;" style="verticalLabelPosition=top;verticalAlign=bottom;shape=mxgraph.electrical.signal_sources.vdd;shadow=0;dashed=0;align=center;strokeWidth=1;fontSize=12;html=1;flipV=1;" parent="1" vertex="1">
          <mxGeometry x="1049" y="310" width="30" height="30" as="geometry" />
        </mxCell>
        <mxCell id="AhyQFol9iE1XHPI1_2-C-9" style="edgeStyle=orthogonalEdgeStyle;rounded=0;orthogonalLoop=1;jettySize=auto;html=1;exitX=0.5;exitY=0;exitDx=0;exitDy=0;exitPerimeter=0;entryX=1;entryY=0.75;entryDx=0;entryDy=0;endArrow=none;endFill=0;" parent="1" source="AhyQFol9iE1XHPI1_2-C-6" target="tseDFiqmj2iWgsH7JX1f-8" edge="1">
          <mxGeometry relative="1" as="geometry" />
        </mxCell>
        <mxCell id="AhyQFol9iE1XHPI1_2-C-6" value="" style="pointerEvents=1;verticalLabelPosition=bottom;shadow=0;dashed=0;align=center;html=1;verticalAlign=top;shape=mxgraph.electrical.signal_sources.signal_ground;" parent="1" vertex="1">
          <mxGeometry x="1128" y="590" width="15" height="20" as="geometry" />
        </mxCell>
        <mxCell id="AhyQFol9iE1XHPI1_2-C-19" value="&lt;div&gt;EEPROM&lt;/div&gt;" style="rounded=0;whiteSpace=wrap;html=1;" parent="1" vertex="1">
          <mxGeometry x="1188" y="670" width="70" height="30" as="geometry" />
        </mxCell>
        <mxCell id="AhyQFol9iE1XHPI1_2-C-21" value="SPI" style="edgeStyle=elbowEdgeStyle;rounded=0;orthogonalLoop=1;jettySize=auto;html=1;exitX=0;exitY=0.5;exitDx=0;exitDy=0;entryX=1;entryY=0.5;entryDx=0;entryDy=-5;entryPerimeter=0;endArrow=none;endFill=0;strokeWidth=3;elbow=vertical;" parent="1" source="AhyQFol9iE1XHPI1_2-C-19" target="tseDFiqmj2iWgsH7JX1f-3" edge="1">
          <mxGeometry relative="1" as="geometry" />
        </mxCell>
        <mxCell id="AhyQFol9iE1XHPI1_2-C-24" value="&lt;div&gt;UART to SPI&lt;br&gt;&lt;/div&gt;" style="rounded=0;whiteSpace=wrap;html=1;" parent="1" vertex="1">
          <mxGeometry x="936" y="676" width="60" height="40" as="geometry" />
        </mxCell>
        <mxCell id="AhyQFol9iE1XHPI1_2-C-25" value="PC SPI" style="edgeStyle=elbowEdgeStyle;rounded=0;orthogonalLoop=1;jettySize=auto;html=1;exitX=1;exitY=0.5;exitDx=0;exitDy=0;entryX=0;entryY=0.5499999999999999;entryDx=0;entryDy=3;entryPerimeter=0;endArrow=none;endFill=0;strokeWidth=3;elbow=vertical;" parent="1" source="AhyQFol9iE1XHPI1_2-C-24" target="tseDFiqmj2iWgsH7JX1f-3" edge="1">
          <mxGeometry relative="1" as="geometry" />
        </mxCell>
        <mxCell id="AhyQFol9iE1XHPI1_2-C-35" value="" style="shape=waypoint;sketch=0;fillStyle=solid;size=6;pointerEvents=1;points=[];fillColor=none;resizable=0;rotatable=0;perimeter=centerPerimeter;snapToPoint=1;" parent="1" vertex="1">
          <mxGeometry x="1098" y="745" width="20" height="20" as="geometry" />
        </mxCell>
        <mxCell id="AhyQFol9iE1XHPI1_2-C-36" style="edgeStyle=orthogonalEdgeStyle;rounded=0;orthogonalLoop=1;jettySize=auto;html=1;exitX=0.5;exitY=1;exitDx=0;exitDy=0;entryX=0.65;entryY=0.85;entryDx=0;entryDy=0;entryPerimeter=0;endArrow=none;endFill=0;" parent="1" source="AhyQFol9iE1XHPI1_2-C-19" target="AhyQFol9iE1XHPI1_2-C-35" edge="1">
          <mxGeometry relative="1" as="geometry">
            <Array as="points">
              <mxPoint x="1223" y="755" />
            </Array>
          </mxGeometry>
        </mxCell>
        <mxCell id="AhyQFol9iE1XHPI1_2-C-40" value="R/W" style="edgeLabel;html=1;align=center;verticalAlign=middle;resizable=0;points=[];" parent="AhyQFol9iE1XHPI1_2-C-36" connectable="0" vertex="1">
          <mxGeometry x="0.2235" y="-1" relative="1" as="geometry">
            <mxPoint x="-6" y="1" as="offset" />
          </mxGeometry>
        </mxCell>
        <mxCell id="AhyQFol9iE1XHPI1_2-C-38" style="edgeStyle=orthogonalEdgeStyle;rounded=0;orthogonalLoop=1;jettySize=auto;html=1;exitX=0.25;exitY=1;exitDx=10;exitDy=0;exitPerimeter=0;entryX=0.35;entryY=0;entryDx=0;entryDy=0;entryPerimeter=0;endArrow=none;endFill=0;" parent="1" source="tseDFiqmj2iWgsH7JX1f-3" target="AhyQFol9iE1XHPI1_2-C-35" edge="1">
          <mxGeometry relative="1" as="geometry" />
        </mxCell>
        <mxCell id="AhyQFol9iE1XHPI1_2-C-47" style="edgeStyle=orthogonalEdgeStyle;rounded=0;orthogonalLoop=1;jettySize=auto;html=1;exitX=1;exitY=0.3044117647058824;exitDx=0;exitDy=3;exitPerimeter=0;entryX=0;entryY=0.5;entryDx=0;entryDy=0;endArrow=none;endFill=0;strokeWidth=3;" parent="1" source="tseDFiqmj2iWgsH7JX1f-4" target="AhyQFol9iE1XHPI1_2-C-24" edge="1">
          <mxGeometry relative="1" as="geometry">
            <mxPoint x="888" y="696" as="targetPoint" />
            <Array as="points" />
          </mxGeometry>
        </mxCell>
        <mxCell id="AhyQFol9iE1XHPI1_2-C-50" value="&lt;div&gt;UART to JTAG&lt;br&gt;&lt;/div&gt;" style="rounded=0;whiteSpace=wrap;html=1;" parent="1" vertex="1">
          <mxGeometry x="978" y="790" width="60" height="40" as="geometry" />
        </mxCell>
        <mxCell id="AhyQFol9iE1XHPI1_2-C-82" style="edgeStyle=orthogonalEdgeStyle;rounded=0;orthogonalLoop=1;jettySize=auto;html=1;exitX=0;exitY=0.5;exitDx=0;exitDy=0;endArrow=none;endFill=0;strokeWidth=3;entryX=1;entryY=0.5;entryDx=0;entryDy=0;" parent="1" source="AhyQFol9iE1XHPI1_2-C-54" target="AhyQFol9iE1XHPI1_2-C-84" edge="1">
          <mxGeometry relative="1" as="geometry">
            <mxPoint x="438" y="720" as="targetPoint" />
          </mxGeometry>
        </mxCell>
        <mxCell id="AhyQFol9iE1XHPI1_2-C-83" value="UART Bus" style="edgeLabel;html=1;align=center;verticalAlign=middle;resizable=0;points=[];" parent="AhyQFol9iE1XHPI1_2-C-82" connectable="0" vertex="1">
          <mxGeometry x="0.0497" y="1" relative="1" as="geometry">
            <mxPoint x="1" y="-2" as="offset" />
          </mxGeometry>
        </mxCell>
        <mxCell id="AhyQFol9iE1XHPI1_2-C-54" value="&lt;div&gt;UART&lt;/div&gt;&lt;div&gt;Controller&lt;br&gt;&lt;/div&gt;" style="rounded=0;whiteSpace=wrap;html=1;" parent="1" vertex="1">
          <mxGeometry x="548" y="690" width="60" height="60" as="geometry" />
        </mxCell>
        <mxCell id="AhyQFol9iE1XHPI1_2-C-55" style="edgeStyle=orthogonalEdgeStyle;rounded=0;orthogonalLoop=1;jettySize=auto;html=1;exitX=1;exitY=0.25;exitDx=0;exitDy=0;entryX=0;entryY=0.4411764705882353;entryDx=0;entryDy=0;entryPerimeter=0;endArrow=none;endFill=0;strokeWidth=3;" parent="1" source="AhyQFol9iE1XHPI1_2-C-54" target="tseDFiqmj2iWgsH7JX1f-4" edge="1">
          <mxGeometry relative="1" as="geometry" />
        </mxCell>
        <mxCell id="AhyQFol9iE1XHPI1_2-C-56" value="Tx/Rx Bus" style="edgeLabel;html=1;align=center;verticalAlign=middle;resizable=0;points=[];" parent="AhyQFol9iE1XHPI1_2-C-55" connectable="0" vertex="1">
          <mxGeometry x="-0.3035" y="1" relative="1" as="geometry">
            <mxPoint x="16" as="offset" />
          </mxGeometry>
        </mxCell>
        <mxCell id="AhyQFol9iE1XHPI1_2-C-58" value="" style="shape=waypoint;sketch=0;fillStyle=solid;size=6;pointerEvents=1;points=[];fillColor=none;resizable=0;rotatable=0;perimeter=centerPerimeter;snapToPoint=1;" parent="1" vertex="1">
          <mxGeometry x="715" y="765" width="20" height="20" as="geometry" />
        </mxCell>
        <mxCell id="AhyQFol9iE1XHPI1_2-C-69" style="edgeStyle=orthogonalEdgeStyle;rounded=0;orthogonalLoop=1;jettySize=auto;html=1;exitX=1;exitY=0.75;exitDx=0;exitDy=0;strokeWidth=3;endArrow=none;endFill=0;entryX=0.85;entryY=0.5;entryDx=0;entryDy=0;entryPerimeter=0;" parent="1" source="AhyQFol9iE1XHPI1_2-C-54" target="AhyQFol9iE1XHPI1_2-C-58" edge="1">
          <mxGeometry relative="1" as="geometry">
            <mxPoint x="718" y="775" as="targetPoint" />
            <Array as="points">
              <mxPoint x="678" y="735" />
              <mxPoint x="678" y="775" />
            </Array>
          </mxGeometry>
        </mxCell>
        <mxCell id="AhyQFol9iE1XHPI1_2-C-71" value="Ctrl Lines" style="edgeLabel;html=1;align=center;verticalAlign=middle;resizable=0;points=[];" parent="AhyQFol9iE1XHPI1_2-C-69" connectable="0" vertex="1">
          <mxGeometry x="-0.6364" relative="1" as="geometry">
            <mxPoint x="6" y="-1" as="offset" />
          </mxGeometry>
        </mxCell>
        <mxCell id="AhyQFol9iE1XHPI1_2-C-77" style="edgeStyle=orthogonalEdgeStyle;rounded=0;orthogonalLoop=1;jettySize=auto;html=1;exitX=0.15;exitY=1;exitDx=10;exitDy=0;exitPerimeter=0;entryX=0.7;entryY=0.1;entryDx=0;entryDy=0;entryPerimeter=0;endArrow=none;endFill=0;" parent="1" source="tseDFiqmj2iWgsH7JX1f-4" target="AhyQFol9iE1XHPI1_2-C-58" edge="1">
          <mxGeometry relative="1" as="geometry" />
        </mxCell>
        <mxCell id="AhyQFol9iE1XHPI1_2-C-80" style="edgeStyle=orthogonalEdgeStyle;rounded=0;orthogonalLoop=1;jettySize=auto;html=1;exitX=0.44999999999999996;exitY=1;exitDx=10;exitDy=0;exitPerimeter=0;entryX=-0.05;entryY=0.35;entryDx=0;entryDy=0;entryPerimeter=0;endArrow=none;endFill=0;" parent="1" source="tseDFiqmj2iWgsH7JX1f-4" target="AhyQFol9iE1XHPI1_2-C-35" edge="1">
          <mxGeometry relative="1" as="geometry">
            <Array as="points">
              <mxPoint x="741" y="755" />
            </Array>
          </mxGeometry>
        </mxCell>
        <mxCell id="AhyQFol9iE1XHPI1_2-C-84" value="PC UART" style="rounded=0;whiteSpace=wrap;html=1;" parent="1" vertex="1">
          <mxGeometry x="441" y="680" width="40" height="80" as="geometry" />
        </mxCell>
        <mxCell id="AhyQFol9iE1XHPI1_2-C-103" style="edgeStyle=orthogonalEdgeStyle;rounded=0;orthogonalLoop=1;jettySize=auto;html=1;exitX=1;exitY=0.5;exitDx=0;exitDy=0;entryX=0;entryY=0.5;entryDx=0;entryDy=0;endArrow=none;endFill=0;strokeWidth=2;" parent="1" source="AhyQFol9iE1XHPI1_2-C-90" target="AhyQFol9iE1XHPI1_2-C-99" edge="1">
          <mxGeometry relative="1" as="geometry" />
        </mxCell>
        <mxCell id="AhyQFol9iE1XHPI1_2-C-90" value="Controlled DC Power Supply" style="rounded=0;whiteSpace=wrap;html=1;" parent="1" vertex="1">
          <mxGeometry x="290" y="375" width="80" height="40" as="geometry" />
        </mxCell>
        <mxCell id="AhyQFol9iE1XHPI1_2-C-111" style="edgeStyle=orthogonalEdgeStyle;rounded=0;orthogonalLoop=1;jettySize=auto;html=1;exitX=0;exitY=0.5;exitDx=0;exitDy=0;entryX=1;entryY=0.5;entryDx=0;entryDy=0;endArrow=none;endFill=0;dashed=1;" parent="1" source="AhyQFol9iE1XHPI1_2-C-91" target="AhyQFol9iE1XHPI1_2-C-108" edge="1">
          <mxGeometry relative="1" as="geometry" />
        </mxCell>
        <mxCell id="AhyQFol9iE1XHPI1_2-C-91" value="Current Meter" style="rounded=0;whiteSpace=wrap;html=1;" parent="1" vertex="1">
          <mxGeometry x="1376" y="375" width="80" height="40" as="geometry" />
        </mxCell>
        <mxCell id="AhyQFol9iE1XHPI1_2-C-92" value="Voltage Meter" style="rounded=0;whiteSpace=wrap;html=1;" parent="1" vertex="1">
          <mxGeometry x="1376" y="310" width="80" height="40" as="geometry" />
        </mxCell>
        <mxCell id="AhyQFol9iE1XHPI1_2-C-93" value="Oscilloscope" style="rounded=0;whiteSpace=wrap;html=1;" parent="1" vertex="1">
          <mxGeometry x="1376" y="440" width="80" height="40" as="geometry" />
        </mxCell>
        <mxCell id="AhyQFol9iE1XHPI1_2-C-120" style="edgeStyle=orthogonalEdgeStyle;rounded=0;orthogonalLoop=1;jettySize=auto;html=1;exitX=1;exitY=0.5;exitDx=0;exitDy=0;entryX=0.5;entryY=1;entryDx=0;entryDy=0;endArrow=none;endFill=0;" parent="1" source="AhyQFol9iE1XHPI1_2-C-94" target="AhyQFol9iE1XHPI1_2-C-122" edge="1">
          <mxGeometry relative="1" as="geometry">
            <mxPoint x="380" y="550" as="targetPoint" />
          </mxGeometry>
        </mxCell>
        <mxCell id="AhyQFol9iE1XHPI1_2-C-94" value="Thermometer" style="rounded=0;whiteSpace=wrap;html=1;" parent="1" vertex="1">
          <mxGeometry x="270" y="530" width="80" height="40" as="geometry" />
        </mxCell>
        <mxCell id="AhyQFol9iE1XHPI1_2-C-115" style="edgeStyle=orthogonalEdgeStyle;rounded=0;orthogonalLoop=1;jettySize=auto;html=1;exitX=0.75;exitY=1;exitDx=0;exitDy=0;entryX=1;entryY=0.5;entryDx=0;entryDy=0;endArrow=none;endFill=0;" parent="1" source="AhyQFol9iE1XHPI1_2-C-95" target="AhyQFol9iE1XHPI1_2-C-93" edge="1">
          <mxGeometry relative="1" as="geometry">
            <Array as="points">
              <mxPoint x="348" y="870" />
              <mxPoint x="1480" y="870" />
              <mxPoint x="1480" y="460" />
            </Array>
          </mxGeometry>
        </mxCell>
        <mxCell id="AhyQFol9iE1XHPI1_2-C-116" style="edgeStyle=orthogonalEdgeStyle;rounded=0;orthogonalLoop=1;jettySize=auto;html=1;exitX=0.5;exitY=1;exitDx=0;exitDy=0;entryX=1;entryY=0.5;entryDx=0;entryDy=0;endArrow=none;endFill=0;" parent="1" source="AhyQFol9iE1XHPI1_2-C-95" target="AhyQFol9iE1XHPI1_2-C-91" edge="1">
          <mxGeometry relative="1" as="geometry">
            <Array as="points">
              <mxPoint x="330" y="890" />
              <mxPoint x="1500" y="890" />
              <mxPoint x="1500" y="395" />
            </Array>
          </mxGeometry>
        </mxCell>
        <mxCell id="AhyQFol9iE1XHPI1_2-C-117" style="edgeStyle=orthogonalEdgeStyle;rounded=0;orthogonalLoop=1;jettySize=auto;html=1;exitX=0.25;exitY=1;exitDx=0;exitDy=0;entryX=1;entryY=0.5;entryDx=0;entryDy=0;endArrow=none;endFill=0;" parent="1" source="AhyQFol9iE1XHPI1_2-C-95" target="AhyQFol9iE1XHPI1_2-C-92" edge="1">
          <mxGeometry relative="1" as="geometry">
            <Array as="points">
              <mxPoint x="313" y="910" />
              <mxPoint x="1520" y="910" />
              <mxPoint x="1520" y="330" />
            </Array>
          </mxGeometry>
        </mxCell>
        <mxCell id="AhyQFol9iE1XHPI1_2-C-118" style="edgeStyle=orthogonalEdgeStyle;rounded=0;orthogonalLoop=1;jettySize=auto;html=1;exitX=0.25;exitY=0;exitDx=0;exitDy=0;entryX=0;entryY=0.5;entryDx=0;entryDy=0;endArrow=none;endFill=0;" parent="1" source="AhyQFol9iE1XHPI1_2-C-95" target="AhyQFol9iE1XHPI1_2-C-90" edge="1">
          <mxGeometry relative="1" as="geometry">
            <Array as="points">
              <mxPoint x="313" y="700" />
              <mxPoint x="250" y="700" />
              <mxPoint x="250" y="395" />
            </Array>
          </mxGeometry>
        </mxCell>
        <mxCell id="AhyQFol9iE1XHPI1_2-C-119" style="edgeStyle=orthogonalEdgeStyle;rounded=0;orthogonalLoop=1;jettySize=auto;html=1;exitX=0.5;exitY=0;exitDx=0;exitDy=0;entryX=0.75;entryY=1;entryDx=0;entryDy=0;endArrow=none;endFill=0;" parent="1" source="AhyQFol9iE1XHPI1_2-C-95" target="AhyQFol9iE1XHPI1_2-C-94" edge="1">
          <mxGeometry relative="1" as="geometry" />
        </mxCell>
        <mxCell id="AhyQFol9iE1XHPI1_2-C-128" style="edgeStyle=orthogonalEdgeStyle;rounded=0;orthogonalLoop=1;jettySize=auto;html=1;exitX=0.75;exitY=0;exitDx=0;exitDy=0;entryX=0;entryY=0.5;entryDx=0;entryDy=0;endArrow=none;endFill=0;" parent="1" source="AhyQFol9iE1XHPI1_2-C-95" target="AhyQFol9iE1XHPI1_2-C-84" edge="1">
          <mxGeometry relative="1" as="geometry" />
        </mxCell>
        <mxCell id="AhyQFol9iE1XHPI1_2-C-95" value="&lt;div&gt;PC Serial&lt;br&gt;&lt;/div&gt;" style="rounded=0;whiteSpace=wrap;html=1;" parent="1" vertex="1">
          <mxGeometry x="295" y="752" width="70" height="30" as="geometry" />
        </mxCell>
        <mxCell id="AhyQFol9iE1XHPI1_2-C-99" value="DC IN" style="rounded=0;whiteSpace=wrap;html=1;" parent="1" vertex="1">
          <mxGeometry x="441" y="370" width="40" height="50" as="geometry" />
        </mxCell>
        <mxCell id="AhyQFol9iE1XHPI1_2-C-105" style="edgeStyle=orthogonalEdgeStyle;rounded=0;orthogonalLoop=1;jettySize=auto;html=1;exitX=0;exitY=0.5;exitDx=0;exitDy=0;entryX=0.533;entryY=0.333;entryDx=0;entryDy=0;entryPerimeter=0;dashed=1;" parent="1" source="AhyQFol9iE1XHPI1_2-C-92" target="AhyQFol9iE1XHPI1_2-C-4" edge="1">
          <mxGeometry relative="1" as="geometry" />
        </mxCell>
        <mxCell id="AhyQFol9iE1XHPI1_2-C-106" value="Voltage Probe" style="edgeLabel;html=1;align=center;verticalAlign=middle;resizable=0;points=[];" parent="AhyQFol9iE1XHPI1_2-C-105" connectable="0" vertex="1">
          <mxGeometry x="0.3432" y="1" relative="1" as="geometry">
            <mxPoint x="36" y="-2" as="offset" />
          </mxGeometry>
        </mxCell>
        <mxCell id="AhyQFol9iE1XHPI1_2-C-110" style="edgeStyle=orthogonalEdgeStyle;rounded=0;orthogonalLoop=1;jettySize=auto;html=1;exitX=0.5;exitY=1;exitDx=0;exitDy=0;entryX=0.75;entryY=0;entryDx=0;entryDy=0;endArrow=none;endFill=0;" parent="1" source="AhyQFol9iE1XHPI1_2-C-108" target="tseDFiqmj2iWgsH7JX1f-8" edge="1">
          <mxGeometry relative="1" as="geometry" />
        </mxCell>
        <mxCell id="AhyQFol9iE1XHPI1_2-C-108" value="&lt;font style=&quot;font-size: 10px;&quot;&gt;Current Probe&lt;/font&gt;" style="rounded=0;whiteSpace=wrap;html=1;" parent="1" vertex="1">
          <mxGeometry x="1044" y="355" width="40" height="80" as="geometry" />
        </mxCell>
        <mxCell id="AhyQFol9iE1XHPI1_2-C-122" value="Thermocouple " style="rounded=0;whiteSpace=wrap;html=1;dashed=1;dashPattern=1 2;" parent="1" vertex="1">
          <mxGeometry x="350" y="480" width="80" height="35" as="geometry" />
        </mxCell>
        <mxCell id="0LhbFTfVdvBc1zgAQCkY-1" value="Thermocouple " style="rounded=0;whiteSpace=wrap;html=1;dashed=1;dashPattern=1 2;" parent="1" vertex="1">
          <mxGeometry x="1001" y="530" width="80" height="35" as="geometry" />
        </mxCell>
      </root>
    </mxGraphModel>
  </diagram>
</mxfile>
